NotoSerif-Condensed.ufo
<glyph name="uni0191" format="2">
  <advance width="571"/>
  <unicode hex="0191"/>
  <anchor x="137" y="-10" name="bottom"/>
  <anchor x="335" y="714" name="top"/>
  <anchor x="566" y="714" name="topright"/>
  <outline>
    <contour>
      <point x="137" y="-10" type="curve" smooth="yes"/>
      <point x="236" y="-10"/>
      <point x="292" y="59"/>
      <point x="292" y="173" type="curve" smooth="yes"/>
      <point x="292" y="346" type="line"/>
      <point x="482" y="346" type="line"/>
      <point x="482" y="395" type="line"/>
      <point x="292" y="395" type="line"/>
      <point x="292" y="665" type="line"/>
      <point x="422" y="665" type="line" smooth="yes"/>
      <point x="467" y="665"/>
      <point x="486" y="626"/>
      <point x="490" y="583" type="curve" smooth="yes"/>
      <point x="494" y="540" type="line"/>
      <point x="539" y="540" type="line"/>
      <point x="535" y="714" type="line"/>
      <point x="126" y="714" type="line"/>
      <point x="126" y="673" type="line"/>
      <point x="143" y="673" type="line" smooth="yes"/>
      <point x="177" y="673"/>
      <point x="201" y="662"/>
      <point x="201" y="606" type="curve" smooth="yes"/>
      <point x="201" y="155" type="line" smooth="yes"/>
      <point x="201" y="77"/>
      <point x="185" y="34"/>
      <point x="135" y="34" type="curve" smooth="yes"/>
      <point x="84" y="34"/>
      <point x="71" y="86"/>
      <point x="71" y="157" type="curve"/>
      <point x="35" y="157"/>
      <point x="4" y="140"/>
      <point x="4" y="94" type="curve" smooth="yes"/>
      <point x="4" y="24"/>
      <point x="51" y="-10"/>
    </contour>
  </outline>
</glyph>
<glyph name="florin" format="2">
  <advance width="353"/>
  <unicode hex="0192"/>
  <anchor x="94" y="-11" name="bottom"/>
  <anchor x="271" y="770" name="top"/>
  <anchor x="409" y="770" name="topright"/>
  <outline>
    <contour>
      <point x="94" y="-11" type="curve" smooth="yes"/>
      <point x="190" y="-11"/>
      <point x="235" y="50"/>
      <point x="235" y="169" type="curve" smooth="yes"/>
      <point x="235" y="488" type="line"/>
      <point x="346" y="488" type="line"/>
      <point x="346" y="536" type="line"/>
      <point x="235" y="536" type="line"/>
      <point x="235" y="596" type="line" smooth="yes"/>
      <point x="235" y="679"/>
      <point x="251" y="726"/>
      <point x="293" y="726" type="curve" smooth="yes"/>
      <point x="331" y="726"/>
      <point x="340" y="685"/>
      <point x="340" y="644" type="curve"/>
      <point x="386" y="644"/>
      <point x="407" y="668"/>
      <point x="407" y="701" type="curve" smooth="yes"/>
      <point x="407" y="740"/>
      <point x="379" y="770"/>
      <point x="300" y="770" type="curve" smooth="yes"/>
      <point x="201" y="770"/>
      <point x="149" y="706"/>
      <point x="149" y="587" type="curve" smooth="yes"/>
      <point x="149" y="536" type="line"/>
      <point x="77" y="536" type="line"/>
      <point x="77" y="488" type="line"/>
      <point x="149" y="488" type="line"/>
      <point x="149" y="163" type="line" smooth="yes"/>
      <point x="149" y="80"/>
      <point x="138" y="33"/>
      <point x="99" y="33" type="curve" smooth="yes"/>
      <point x="68" y="33"/>
      <point x="59" y="71"/>
      <point x="59" y="126" type="curve"/>
      <point x="13" y="126"/>
      <point x="-8" y="104"/>
      <point x="-8" y="72" type="curve" smooth="yes"/>
      <point x="-8" y="26"/>
      <point x="23" y="-11"/>
    </contour>
  </outline>
</glyph>
<glyph name="uni1AB9" format="2">
  <unicode hex="1AB9"/>
  <anchor x="-338" y="71" name="_bottom"/>
  <anchor x="-338" y="-240" name="bottom"/>
  <outline>
    <contour>
      <point x="-356" y="-240" type="line"/>
      <point x="-278" y="26" type="line"/>
      <point x="-320" y="41" type="line"/>
      <point x="-399" y="-224" type="line"/>
    </contour>
  </outline>
</glyph>
<glyph name="uni1ABA" format="2">
  <unicode hex="1ABA"/>
  <anchor x="-348" y="55" name="_bottom"/>
  <anchor x="-348" y="-273" name="bottom"/>
  <outline>
    <contour>
      <point x="-355" y="-222" type="line"/>
      <point x="-283" y="15" type="line"/>
      <point x="-321" y="25" type="line"/>
      <point x="-393" y="-211" type="line"/>
    </contour>
    <contour>
      <point x="-375" y="-273" type="curve" smooth="yes"/>
      <point x="-354" y="-273"/>
      <point x="-339" y="-254"/>
      <point x="-339" y="-224" type="curve" smooth="yes"/>
      <point x="-339" y="-193"/>
      <point x="-354" y="-174"/>
      <point x="-375" y="-174" type="curve" smooth="yes"/>
      <point x="-396" y="-174"/>
      <point x="-412" y="-193"/>
      <point x="-412" y="-224" type="curve" smooth="yes"/>
      <point x="-412" y="-254"/>
      <point x="-396" y="-273"/>
    </contour>
  </outline>
</glyph>
<glyph name="uni1D09" format="2">
  <advance width="255"/>
  <unicode hex="1D09"/>
  <anchor x="128" y="-180" name="bottom"/>
  <anchor x="128" y="536" name="top"/>
  <outline>
    <contour>
      <point x="29" y="0" type="line"/>
      <point x="228" y="0" type="line"/>
      <point x="228" y="40" type="line"/>
      <point x="217" y="40" type="line" smooth="yes"/>
      <point x="190" y="40"/>
      <point x="169" y="49"/>
      <point x="169" y="91" type="curve" smooth="yes"/>
      <point x="169" y="445" type="line" smooth="yes"/>
      <point x="169" y="487"/>
      <point x="190" y="496"/>
      <point x="217" y="496" type="curve" smooth="yes"/>
      <point x="228" y="496" type="line"/>
      <point x="228" y="536" type="line"/>
      <point x="29" y="536" type="line"/>
      <point x="29" y="496" type="line"/>
      <point x="37" y="496" type="line" smooth="yes"/>
      <point x="66" y="496"/>
      <point x="86" y="487"/>
      <point x="86" y="445" type="curve" smooth="yes"/>
      <point x="86" y="91" type="line" smooth="yes"/>
      <point x="86" y="49"/>
      <point x="66" y="40"/>
      <point x="37" y="40" type="curve" smooth="yes"/>
      <point x="29" y="40" type="line"/>
    </contour>
    <contour>
      <point x="126" y="-180" type="curve" smooth="yes"/>
      <point x="153" y="-180"/>
      <point x="178" y="-166"/>
      <point x="178" y="-120" type="curve" smooth="yes"/>
      <point x="178" y="-73"/>
      <point x="153" y="-59"/>
      <point x="126" y="-59" type="curve" smooth="yes"/>
      <point x="97" y="-59"/>
      <point x="75" y="-73"/>
      <point x="75" y="-120" type="curve" smooth="yes"/>
      <point x="75" y="-166"/>
      <point x="97" y="-180"/>
    </contour>
  </outline>
</glyph>
<glyph name="uni1D24" format="2">
  <advance width="355"/>
  <unicode hex="1D24"/>
  <anchor x="178" y="0" name="bottom"/>
  <anchor x="178" y="536" name="top"/>
  <outline>
    <contour>
      <point x="187" y="-10" type="curve" smooth="yes"/>
      <point x="276" y="-10"/>
      <point x="330" y="24"/>
      <point x="330" y="94" type="curve" smooth="yes"/>
      <point x="330" y="140"/>
      <point x="302" y="156"/>
      <point x="273" y="156" type="curve"/>
      <point x="273" y="84"/>
      <point x="245" y="34"/>
      <point x="185" y="34" type="curve" smooth="yes"/>
      <point x="130" y="34"/>
      <point x="103" y="61"/>
      <point x="103" y="115" type="curve" smooth="yes"/>
      <point x="103" y="162"/>
      <point x="121" y="181"/>
      <point x="180" y="213" type="curve"/>
      <point x="180" y="246" type="line"/>
      <point x="278" y="298"/>
      <point x="317" y="327"/>
      <point x="317" y="415" type="curve" smooth="yes"/>
      <point x="317" y="501"/>
      <point x="258" y="545"/>
      <point x="171" y="545" type="curve" smooth="yes"/>
      <point x="86" y="545"/>
      <point x="44" y="502"/>
      <point x="44" y="452" type="curve" smooth="yes"/>
      <point x="44" y="417"/>
      <point x="64" y="397"/>
      <point x="100" y="397" type="curve"/>
      <point x="100" y="466"/>
      <point x="129" y="502"/>
      <point x="178" y="502" type="curve" smooth="yes"/>
      <point x="223" y="502"/>
      <point x="247" y="476"/>
      <point x="247" y="433" type="curve" smooth="yes"/>
      <point x="247" y="387"/>
      <point x="228" y="365"/>
      <point x="179" y="341" type="curve"/>
      <point x="179" y="308" type="line"/>
      <point x="59" y="244"/>
      <point x="30" y="202"/>
      <point x="30" y="133" type="curve" smooth="yes"/>
      <point x="30" y="43"/>
      <point x="88" y="-10"/>
    </contour>
  </outline>
</glyph>
<glyph name="uni1FEF" format="2">
  <advance width="269"/>
  <unicode hex="1FEF"/>
  <anchor x="126" y="536" name="_top"/>
  <anchor x="126" y="760" name="top"/>
  <outline>
    <contour>
      <point x="147" y="608" type="curve"/>
      <point x="181" y="608" type="line"/>
      <point x="181" y="621" type="line"/>
      <point x="169" y="654"/>
      <point x="154" y="717"/>
      <point x="151" y="760" type="curve"/>
      <point x="70" y="760" type="line"/>
      <point x="70" y="750" type="line"/>
      <point x="77" y="722"/>
      <point x="119" y="642"/>
    </contour>
  </outline>
</glyph>
<glyph name="uni1FFD" format="2">
  <advance width="269"/>
  <unicode hex="1FFD"/>
  <anchor x="145" y="536" name="_top"/>
  <anchor x="145" y="760" name="top"/>
  <outline>
    <contour>
      <point x="89" y="608" type="line"/>
      <point x="123" y="608" type="line"/>
      <point x="152" y="644"/>
      <point x="191" y="721"/>
      <point x="200" y="750" type="curve"/>
      <point x="200" y="760" type="line"/>
      <point x="118" y="760" type="line"/>
      <point x="114" y="717"/>
      <point x="101" y="655"/>
      <point x="89" y="621" type="curve"/>
    </contour>
  </outline>
</glyph>
<glyph name="plussuperior" format="2">
  <advance width="313"/>
  <unicode hex="207A"/>
  <outline>
    <contour>
      <point x="133" y="319" type="line"/>
      <point x="179" y="319" type="line"/>
      <point x="179" y="460" type="line"/>
      <point x="288" y="460" type="line"/>
      <point x="288" y="503" type="line"/>
      <point x="179" y="503" type="line"/>
      <point x="179" y="644" type="line"/>
      <point x="133" y="644" type="line"/>
      <point x="133" y="503" type="line"/>
      <point x="25" y="503" type="line"/>
      <point x="25" y="460" type="line"/>
      <point x="133" y="460" type="line"/>
    </contour>
  </outline>
</glyph>
<glyph name="minussuperior" format="2">
  <advance width="313"/>
  <unicode hex="207B"/>
  <outline>
    <contour>
      <point x="25" y="460" type="line"/>
      <point x="288" y="460" type="line"/>
      <point x="288" y="503" type="line"/>
      <point x="25" y="503" type="line"/>
    </contour>
  </outline>
</glyph>
<glyph name="parenleftsuperior" format="2">
  <advance width="198"/>
  <unicode hex="207D"/>
  <outline>
    <contour>
      <point x="182" y="196" type="curve"/>
      <point x="182" y="240" type="line"/>
      <point x="108" y="303"/>
      <point x="97" y="369"/>
      <point x="97" y="491" type="curve" smooth="yes"/>
      <point x="97" y="612"/>
      <point x="108" y="682"/>
      <point x="182" y="746" type="curve"/>
      <point x="182" y="788" type="line"/>
      <point x="74" y="737"/>
      <point x="24" y="674"/>
      <point x="24" y="491" type="curve" smooth="yes"/>
      <point x="24" y="302"/>
      <point x="67" y="247"/>
    </contour>
  </outline>
</glyph>
<glyph name="parenrightsuperior" format="2">
  <advance width="198"/>
  <unicode hex="207E"/>
  <outline>
    <contour>
      <point x="15" y="196" type="line"/>
      <point x="123" y="247"/>
      <point x="174" y="310"/>
      <point x="174" y="493" type="curve" smooth="yes"/>
      <point x="174" y="682"/>
      <point x="130" y="737"/>
      <point x="15" y="788" type="curve"/>
      <point x="15" y="744" type="line"/>
      <point x="89" y="681"/>
      <point x="101" y="615"/>
      <point x="101" y="493" type="curve"/>
      <point x="101" y="372"/>
      <point x="89" y="302"/>
      <point x="15" y="238" type="curve"/>
    </contour>
  </outline>
</glyph>
<glyph name="uniA670" format="2">
  <unicode hex="A670"/>
  <outline>
    <contour>
      <point x="177" y="451" type="line"/>
      <point x="222" y="509" type="line"/>
      <point x="267" y="451" type="line"/>
      <point x="298" y="489" type="line"/>
      <point x="252" y="547" type="line"/>
      <point x="298" y="606" type="line"/>
      <point x="268" y="643" type="line"/>
      <point x="222" y="585" type="line"/>
      <point x="177" y="643" type="line"/>
      <point x="146" y="606" type="line"/>
      <point x="193" y="547" type="line"/>
      <point x="146" y="489" type="line"/>
    </contour>
    <contour>
      <point x="-268" y="-105" type="line"/>
      <point x="-222" y="-47" type="line"/>
      <point x="-177" y="-105" type="line"/>
      <point x="-147" y="-67" type="line"/>
      <point x="-192" y="-9" type="line"/>
      <point x="-147" y="50" type="line"/>
      <point x="-177" y="87" type="line"/>
      <point x="-222" y="29" type="line"/>
      <point x="-268" y="87" type="line"/>
      <point x="-298" y="50" type="line"/>
      <point x="-252" y="-9" type="line"/>
      <point x="-298" y="-67" type="line"/>
    </contour>
    <contour>
      <point x="-253" y="174" type="line"/>
      <point x="-224" y="212" type="line"/>
      <point x="-269" y="270" type="line"/>
      <point x="-224" y="328" type="line"/>
      <point x="-253" y="366" type="line"/>
      <point x="-299" y="308" type="line"/>
      <point x="-346" y="366" type="line"/>
      <point x="-375" y="329" type="line"/>
      <point x="-329" y="270" type="line"/>
      <point x="-375" y="213" type="line"/>
      <point x="-346" y="175" type="line"/>
      <point x="-299" y="234" type="line"/>
    </contour>
    <contour>
      <point x="-46" y="-203" type="line"/>
      <point x="0" y="-145" type="line"/>
      <point x="45" y="-203" type="line"/>
      <point x="76" y="-165" type="line"/>
      <point x="30" y="-107" type="line"/>
      <point x="76" y="-48" type="line"/>
      <point x="46" y="-11" type="line"/>
      <point x="0" y="-69" type="line"/>
      <point x="-46" y="-11" type="line"/>
      <point x="-76" y="-48" type="line"/>
      <point x="-30" y="-107" type="line"/>
      <point x="-76" y="-165" type="line"/>
    </contour>
    <contour>
      <point x="-268" y="451" type="line"/>
      <point x="-222" y="509" type="line"/>
      <point x="-177" y="451" type="line"/>
      <point x="-147" y="489" type="line"/>
      <point x="-192" y="547" type="line"/>
      <point x="-147" y="606" type="line"/>
      <point x="-177" y="643" type="line"/>
      <point x="-222" y="585" type="line"/>
      <point x="-268" y="643" type="line"/>
      <point x="-298" y="606" type="line"/>
      <point x="-252" y="547" type="line"/>
      <point x="-298" y="489" type="line"/>
    </contour>
    <contour>
      <point x="177" y="-105" type="line"/>
      <point x="222" y="-47" type="line"/>
      <point x="267" y="-105" type="line"/>
      <point x="298" y="-67" type="line"/>
      <point x="252" y="-9" type="line"/>
      <point x="298" y="50" type="line"/>
      <point x="268" y="87" type="line"/>
      <point x="222" y="29" type="line"/>
      <point x="177" y="87" type="line"/>
      <point x="146" y="50" type="line"/>
      <point x="193" y="-9" type="line"/>
      <point x="146" y="-67" type="line"/>
    </contour>
    <contour>
      <point x="251" y="174" type="line"/>
      <point x="298" y="233" type="line"/>
      <point x="344" y="174" type="line"/>
      <point x="374" y="212" type="line"/>
      <point x="328" y="270" type="line"/>
      <point x="374" y="328" type="line"/>
      <point x="344" y="366" type="line"/>
      <point x="298" y="308" type="line"/>
      <point x="251" y="366" type="line"/>
      <point x="222" y="329" type="line"/>
      <point x="267" y="270" type="line"/>
      <point x="222" y="212" type="line"/>
    </contour>
    <contour>
      <point x="-46" y="552" type="line"/>
      <point x="0" y="610" type="line"/>
      <point x="45" y="552" type="line"/>
      <point x="76" y="590" type="line"/>
      <point x="30" y="648" type="line"/>
      <point x="76" y="707" type="line"/>
      <point x="46" y="744" type="line"/>
      <point x="0" y="686" type="line"/>
      <point x="-46" y="744" type="line"/>
      <point x="-76" y="707" type="line"/>
      <point x="-30" y="648" type="line"/>
      <point x="-76" y="590" type="line"/>
    </contour>
  </outline>
</glyph>
<glyph name="uniA671" format="2">
  <unicode hex="A671"/>
  <outline>
    <contour>
      <point x="-221" y="579" type="line"/>
      <point x="-182" y="579" type="line"/>
      <point x="-182" y="678" type="line"/>
      <point x="181" y="678" type="line"/>
      <point x="181" y="579" type="line"/>
      <point x="220" y="579" type="line"/>
      <point x="220" y="743" type="line"/>
      <point x="-221" y="743" type="line"/>
    </contour>
    <contour>
      <point x="-221" y="-207" type="line"/>
      <point x="220" y="-207" type="line"/>
      <point x="220" y="-43" type="line"/>
      <point x="181" y="-43" type="line"/>
      <point x="181" y="-142" type="line"/>
      <point x="-182" y="-142" type="line"/>
      <point x="-182" y="-43" type="line"/>
      <point x="-221" y="-43" type="line"/>
    </contour>
  </outline>
</glyph>
<glyph name="uniA672" format="2">
  <unicode hex="A672"/>
  <outline>
    <contour>
      <point x="-19" y="497" type="line"/>
      <point x="19" y="497" type="line"/>
      <point x="19" y="594" type="line"/>
      <point x="104" y="594" type="line"/>
      <point x="104" y="635" type="line"/>
      <point x="19" y="635" type="line"/>
      <point x="19" y="729" type="line"/>
      <point x="-19" y="729" type="line"/>
      <point x="-19" y="635" type="line"/>
      <point x="-104" y="635" type="line"/>
      <point x="-104" y="594" type="line"/>
      <point x="-19" y="594" type="line"/>
    </contour>
    <contour>
      <point x="-135" y="-197" type="line"/>
      <point x="-97" y="-197" type="line"/>
      <point x="-97" y="36" type="line"/>
      <point x="-135" y="36" type="line"/>
    </contour>
    <contour>
      <point x="-336" y="57" type="line"/>
      <point x="-144" y="57" type="line"/>
      <point x="-144" y="98" type="line"/>
      <point x="-336" y="98" type="line"/>
    </contour>
    <contour>
      <point x="-19" y="-197" type="line"/>
      <point x="19" y="-197" type="line"/>
      <point x="19" y="36" type="line"/>
      <point x="-19" y="36" type="line"/>
    </contour>
    <contour>
      <point x="-336" y="252" type="line"/>
      <point x="-144" y="252" type="line"/>
      <point x="-144" y="293" type="line"/>
      <point x="-336" y="293" type="line"/>
    </contour>
    <contour>
      <point x="97" y="-197" type="line"/>
      <point x="136" y="-197" type="line"/>
      <point x="136" y="36" type="line"/>
      <point x="97" y="36" type="line"/>
    </contour>
    <contour>
      <point x="-336" y="447" type="line"/>
      <point x="-144" y="447" type="line"/>
      <point x="-144" y="488" type="line"/>
      <point x="-336" y="488" type="line"/>
    </contour>
    <contour>
      <point x="143" y="57" type="line"/>
      <point x="336" y="57" type="line"/>
      <point x="336" y="98" type="line"/>
      <point x="143" y="98" type="line"/>
    </contour>
    <contour>
      <point x="143" y="252" type="line"/>
      <point x="336" y="252" type="line"/>
      <point x="336" y="293" type="line"/>
      <point x="143" y="293" type="line"/>
    </contour>
    <contour>
      <point x="143" y="447" type="line"/>
      <point x="336" y="447" type="line"/>
      <point x="336" y="488" type="line"/>
      <point x="143" y="488" type="line"/>
    </contour>
  </outline>
</glyph>
<glyph name="uniA764" format="2">
  <advance width="486"/>
  <unicode hex="A764"/>
  <outline>
    <contour>
      <point x="28" y="0" type="line"/>
      <point x="278" y="0" type="line"/>
      <point x="278" y="41" type="line"/>
      <point x="259" y="41" type="line" smooth="yes"/>
      <point x="222" y="41"/>
      <point x="196" y="53"/>
      <point x="196" y="116" type="curve" smooth="yes"/>
      <point x="196" y="137" type="line"/>
      <point x="239" y="137" type="line" smooth="yes"/>
      <point x="405" y="137"/>
      <point x="457" y="224"/>
      <point x="457" y="338" type="curve" smooth="yes"/>
      <point x="457" y="462"/>
      <point x="398" y="521"/>
      <point x="255" y="521" type="curve" smooth="yes"/>
      <point x="196" y="521" type="line"/>
      <point x="196" y="574" type="line"/>
      <point x="276" y="574" type="line"/>
      <point x="276" y="620" type="line"/>
      <point x="196" y="620" type="line"/>
      <point x="197" y="662"/>
      <point x="210" y="673"/>
      <point x="259" y="673" type="curve" smooth="yes"/>
      <point x="278" y="673" type="line"/>
      <point x="278" y="714" type="line"/>
      <point x="28" y="714" type="line"/>
      <point x="28" y="673" type="line"/>
      <point x="43" y="673" type="line" smooth="yes"/>
      <point x="83" y="673"/>
      <point x="102" y="663"/>
      <point x="103" y="620" type="curve"/>
      <point x="28" y="620" type="line"/>
      <point x="28" y="574" type="line"/>
      <point x="103" y="574" type="line"/>
      <point x="103" y="110" type="line" smooth="yes"/>
      <point x="103" y="52"/>
      <point x="78" y="41"/>
      <point x="43" y="41" type="curve" smooth="yes"/>
      <point x="28" y="41" type="line"/>
    </contour>
    <contour>
      <point x="196" y="182" type="line"/>
      <point x="196" y="473" type="line"/>
      <point x="242" y="473" type="line" smooth="yes"/>
      <point x="327" y="473"/>
      <point x="358" y="435"/>
      <point x="358" y="334" type="curve" smooth="yes"/>
      <point x="358" y="216"/>
      <point x="322" y="182"/>
      <point x="234" y="182" type="curve" smooth="yes"/>
    </contour>
  </outline>
</glyph>
<glyph name="uniA765" format="2">
  <advance width="496"/>
  <unicode hex="A765"/>
  <anchor x="246" y="-240" name="bottom"/>
  <anchor x="246" y="760" name="top"/>
  <outline>
    <contour>
      <point x="18" y="595" type="line"/>
      <point x="271" y="595" type="line"/>
      <point x="271" y="639" type="line"/>
      <point x="18" y="639" type="line"/>
    </contour>
    <component base="thorn"/>
  </outline>
</glyph>
<glyph name="uniA7AE" format="2">
  <advance width="454"/>
  <unicode hex="A7AE"/>
  <outline>
    <contour>
      <point x="30" y="0" type="line"/>
      <point x="423" y="0" type="line"/>
      <point x="428" y="163" type="line"/>
      <point x="385" y="163" type="line"/>
      <point x="381" y="128" type="line" smooth="yes"/>
      <point x="374" y="65"/>
      <point x="362" y="47"/>
      <point x="320" y="47" type="curve" smooth="yes"/>
      <point x="270" y="47" type="line"/>
      <point x="270" y="667" type="line"/>
      <point x="320" y="667" type="line" smooth="yes"/>
      <point x="361" y="667"/>
      <point x="374" y="649"/>
      <point x="381" y="586" type="curve" smooth="yes"/>
      <point x="385" y="551" type="line"/>
      <point x="428" y="551" type="line"/>
      <point x="423" y="714" type="line"/>
      <point x="30" y="714" type="line"/>
      <point x="26" y="551" type="line"/>
      <point x="69" y="551" type="line"/>
      <point x="73" y="586" type="line" smooth="yes"/>
      <point x="80" y="649"/>
      <point x="92" y="667"/>
      <point x="134" y="667" type="curve" smooth="yes"/>
      <point x="184" y="667" type="line"/>
      <point x="184" y="47" type="line"/>
      <point x="133" y="47" type="line" smooth="yes"/>
      <point x="93" y="47"/>
      <point x="79" y="65"/>
      <point x="73" y="128" type="curve" smooth="yes"/>
      <point x="69" y="163" type="line"/>
      <point x="26" y="163" type="line"/>
    </contour>
  </outline>
</glyph>
<glyph name="uniA7FF" format="2">
  <advance width="818"/>
  <unicode hex="A7FF"/>
  <outline>
    <contour>
      <point x="1" y="0" type="line"/>
      <point x="168" y="0" type="line"/>
      <point x="168" y="41" type="line"/>
      <point x="164" y="41" type="line" smooth="yes"/>
      <point x="132" y="41"/>
      <point x="114" y="53"/>
      <point x="114" y="81" type="curve" smooth="yes"/>
      <point x="114" y="101"/>
      <point x="117" y="122"/>
      <point x="128" y="157" type="curve" smooth="yes"/>
      <point x="164" y="296" type="line" smooth="yes"/>
      <point x="181" y="355"/>
      <point x="193" y="410"/>
      <point x="200" y="440" type="curve"/>
      <point x="202" y="440" type="line"/>
      <point x="210" y="399"/>
      <point x="218" y="356"/>
      <point x="228" y="316" type="curve" smooth="yes"/>
      <point x="299" y="0" type="line"/>
      <point x="364" y="0" type="line"/>
      <point x="472" y="443" type="line"/>
      <point x="579" y="0" type="line"/>
      <point x="645" y="0" type="line"/>
      <point x="747" y="417" type="line" smooth="yes"/>
      <point x="763" y="484"/>
      <point x="775" y="495"/>
      <point x="807" y="495" type="curve" smooth="yes"/>
      <point x="817" y="495" type="line"/>
      <point x="817" y="536" type="line"/>
      <point x="650" y="536" type="line"/>
      <point x="650" y="495" type="line"/>
      <point x="654" y="495" type="line" smooth="yes"/>
      <point x="686" y="495"/>
      <point x="702" y="480"/>
      <point x="702" y="446" type="curve" smooth="yes"/>
      <point x="702" y="435"/>
      <point x="699" y="413"/>
      <point x="696" y="396" type="curve" smooth="yes"/>
      <point x="659" y="237" type="line" smooth="yes"/>
      <point x="644" y="176"/>
      <point x="635" y="121"/>
      <point x="631" y="89" type="curve"/>
      <point x="628" y="89" type="line"/>
      <point x="623" y="123"/>
      <point x="608" y="199"/>
      <point x="597" y="242" type="curve" smooth="yes"/>
      <point x="522" y="535" type="line"/>
      <point x="458" y="535" type="line"/>
      <point x="380" y="230" type="line" smooth="yes"/>
      <point x="369" y="186"/>
      <point x="354" y="121"/>
      <point x="350" y="89" type="curve"/>
      <point x="348" y="89" type="line"/>
      <point x="343" y="119"/>
      <point x="331" y="187"/>
      <point x="322" y="230" type="curve" smooth="yes"/>
      <point x="254" y="536" type="line"/>
      <point x="188" y="536" type="line"/>
      <point x="69" y="121" type="line" smooth="yes"/>
      <point x="51" y="57"/>
      <point x="43" y="41"/>
      <point x="7" y="41" type="curve" smooth="yes"/>
      <point x="1" y="41" type="line"/>
    </contour>
  </outline>
</glyph>
<glyph name="uniAB3F" format="2">
  <advance width="397"/>
  <unicode hex="AB3F"/>
  <anchor x="179" y="541" name="bottom"/>
  <anchor x="179" y="5" name="top"/>
  <anchor x="21" y="5" name="topright"/>
  <outline>
    <contour>
      <point x="5" y="-43" type="line"/>
      <point x="48" y="-43" type="line"/>
      <point x="350" y="583" type="line"/>
      <point x="306" y="583" type="line"/>
    </contour>
    <component base="c" xScale="-1" yScale="-1" xOffset="398" yOffset="541"/>
  </outline>
</glyph>
<glyph name="uniAB60" format="2">
  <advance width="733"/>
  <unicode hex="AB60"/>
  <outline>
    <contour>
      <point x="286" y="0" type="line"/>
      <point x="533" y="0" type="line" smooth="yes"/>
      <point x="635" y="0"/>
      <point x="703" y="47"/>
      <point x="703" y="158" type="curve" smooth="yes"/>
      <point x="703" y="274"/>
      <point x="625" y="298"/>
      <point x="527" y="298" type="curve" smooth="yes"/>
      <point x="445" y="298" type="line"/>
      <point x="445" y="425" type="line" smooth="yes"/>
      <point x="445" y="484"/>
      <point x="471" y="494"/>
      <point x="510" y="494" type="curve" smooth="yes"/>
      <point x="519" y="494" type="line"/>
      <point x="519" y="536" type="line"/>
      <point x="286" y="536" type="line"/>
      <point x="286" y="495" type="line"/>
      <point x="297" y="495" type="line" smooth="yes"/>
      <point x="332" y="495"/>
      <point x="360" y="488"/>
      <point x="360" y="425" type="curve" smooth="yes"/>
      <point x="360" y="108" type="line" smooth="yes"/>
      <point x="360" y="52"/>
      <point x="340" y="41"/>
      <point x="294" y="41" type="curve" smooth="yes"/>
      <point x="286" y="41" type="line"/>
    </contour>
    <contour>
      <point x="26" y="0" type="line"/>
      <point x="243" y="0" type="line"/>
      <point x="243" y="41" type="line"/>
      <point x="238" y="41" type="line" smooth="yes"/>
      <point x="198" y="41"/>
      <point x="177" y="55"/>
      <point x="177" y="108" type="curve" smooth="yes"/>
      <point x="177" y="428" type="line" smooth="yes"/>
      <point x="177" y="480"/>
      <point x="198" y="495"/>
      <point x="235" y="495" type="curve" smooth="yes"/>
      <point x="243" y="495" type="line"/>
      <point x="243" y="536" type="line"/>
      <point x="26" y="536" type="line"/>
      <point x="26" y="495" type="line"/>
      <point x="33" y="495" type="line" smooth="yes"/>
      <point x="69" y="495"/>
      <point x="90" y="481"/>
      <point x="90" y="427" type="curve" smooth="yes"/>
      <point x="90" y="108" type="line" smooth="yes"/>
      <point x="90" y="54"/>
      <point x="71" y="41"/>
      <point x="30" y="41" type="curve" smooth="yes"/>
      <point x="26" y="41" type="line"/>
    </contour>
    <contour>
      <point x="445" y="44" type="line"/>
      <point x="445" y="252" type="line"/>
      <point x="510" y="252" type="line" smooth="yes"/>
      <point x="579" y="252"/>
      <point x="613" y="226"/>
      <point x="613" y="158" type="curve" smooth="yes"/>
      <point x="613" y="76"/>
      <point x="581" y="44"/>
      <point x="515" y="44" type="curve" smooth="yes"/>
    </contour>
  </outline>
</glyph>
<glyph name="uniFE20" format="2">
  <unicode hex="FE20"/>
  <anchor x="2" y="536" name="_top"/>
  <outline>
    <contour>
      <point x="-305" y="593" type="curve"/>
      <point x="-265" y="593" type="line"/>
      <point x="-205" y="684"/>
      <point x="-122" y="714"/>
      <point x="2" y="714" type="curve"/>
      <point x="2" y="780" type="line"/>
      <point x="-8" y="780" type="line" smooth="yes"/>
      <point x="-146" y="780"/>
      <point x="-244" y="728"/>
    </contour>
  </outline>
</glyph>
<glyph name="uniFE21" format="2">
  <unicode hex="FE21"/>
  <anchor x="-1" y="536" name="_top"/>
  <outline>
    <contour>
      <point x="265" y="593" type="curve"/>
      <point x="306" y="593" type="line"/>
      <point x="245" y="728"/>
      <point x="147" y="780"/>
      <point x="8" y="780" type="curve" smooth="yes"/>
      <point x="-1" y="780" type="line"/>
      <point x="-1" y="714" type="line"/>
      <point x="122" y="714"/>
      <point x="206" y="684"/>
    </contour>
  </outline>
</glyph>
<glyph name="uniFE22" format="2">
  <unicode hex="FE22"/>
  <anchor x="2" y="536" name="_top"/>
  <outline>
    <contour>
      <point x="-304" y="596" type="curve"/>
      <point x="-265" y="596" type="line"/>
      <point x="-246" y="648"/>
      <point x="-215" y="665"/>
      <point x="-163" y="665" type="curve" smooth="yes"/>
      <point x="-102" y="665"/>
      <point x="-54" y="644"/>
      <point x="2" y="626" type="curve"/>
      <point x="2" y="694" type="line"/>
      <point x="-45" y="709"/>
      <point x="-99" y="724"/>
      <point x="-162" y="724" type="curve" smooth="yes"/>
      <point x="-244" y="724"/>
      <point x="-288" y="672"/>
    </contour>
  </outline>
</glyph>
<glyph name="uniFE23" format="2">
  <unicode hex="FE23"/>
  <anchor x="-2" y="536" name="_top"/>
  <outline>
    <contour>
      <point x="162" y="597" type="curve" smooth="yes"/>
      <point x="244" y="597"/>
      <point x="288" y="648"/>
      <point x="304" y="724" type="curve"/>
      <point x="265" y="724" type="line"/>
      <point x="245" y="672"/>
      <point x="215" y="656"/>
      <point x="163" y="656" type="curve" smooth="yes"/>
      <point x="101" y="656"/>
      <point x="54" y="677"/>
      <point x="-2" y="695" type="curve"/>
      <point x="-2" y="627" type="line"/>
      <point x="45" y="612"/>
      <point x="99" y="597"/>
    </contour>
  </outline>
</glyph>
<glyph name="combiningmacronlefthalf" format="2">
  <unicode hex="FE24"/>
  <anchor x="0" y="536" name="_top"/>
  <outline>
    <contour>
      <point x="0" y="681" type="line"/>
      <point x="301" y="681" type="line"/>
      <point x="301" y="738" type="line"/>
      <point x="0" y="738" type="line"/>
    </contour>
  </outline>
</glyph>
<glyph name="uniFE27" format="2">
  <unicode hex="FE27"/>
  <anchor x="0" y="0" name="_bottom"/>
  <anchor x="-151" y="536" name="braceleft"/>
  <outline>
    <contour>
      <point x="0" y="-206" type="curve"/>
      <point x="0" y="-148" type="line"/>
      <point x="-129" y="-148"/>
      <point x="-219" y="-106"/>
      <point x="-263" y="-26" type="curve"/>
      <point x="-302" y="-26" type="line"/>
      <point x="-244" y="-152"/>
      <point x="-145" y="-206"/>
    </contour>
  </outline>
</glyph>
<glyph name="uniFE29" format="2">
  <unicode hex="FE29"/>
  <anchor x="0" y="0" name="_bottom"/>
  <anchor x="-153" y="536" name="braceleft"/>
  <outline>
    <contour>
      <point x="-307" y="-195" type="curve"/>
      <point x="-269" y="-195" type="line"/>
      <point x="-260" y="-172"/>
      <point x="-247" y="-154"/>
      <point x="-231" y="-143" type="curve" smooth="yes"/>
      <point x="-215" y="-133"/>
      <point x="-194" y="-126"/>
      <point x="-167" y="-126" type="curve" smooth="yes"/>
      <point x="-127" y="-126"/>
      <point x="-77" y="-139"/>
      <point x="0" y="-165" type="curve"/>
      <point x="0" y="-97" type="line"/>
      <point x="-59" y="-78"/>
      <point x="-115" y="-68"/>
      <point x="-165" y="-68" type="curve" smooth="yes"/>
      <point x="-239" y="-68"/>
      <point x="-290" y="-115"/>
    </contour>
  </outline>
</glyph>
<glyph name="uniFE2A" format="2">
  <unicode hex="FE2A"/>
  <anchor x="0" y="0" name="_bottom"/>
  <anchor x="153" y="536" name="braceleft"/>
  <outline>
    <contour>
      <point x="163" y="-195" type="curve" smooth="yes"/>
      <point x="243" y="-195"/>
      <point x="293" y="-148"/>
      <point x="306" y="-66" type="curve"/>
      <point x="269" y="-66" type="line"/>
      <point x="262" y="-87"/>
      <point x="250" y="-104"/>
      <point x="231" y="-116" type="curve"/>
      <point x="213" y="-130"/>
      <point x="191" y="-135"/>
      <point x="167" y="-135" type="curve" smooth="yes"/>
      <point x="128" y="-135"/>
      <point x="79" y="-124"/>
      <point x="0" y="-98" type="curve"/>
      <point x="0" y="-164" type="line"/>
      <point x="59" y="-185"/>
      <point x="113" y="-195"/>
    </contour>
  </outline>
</glyph>
<glyph name="uniFE2B" format="2">
  <unicode hex="FE2B"/>
  <anchor x="0" y="0" name="_bottom"/>
  <anchor x="151" y="536" name="braceleft"/>
  <outline>
    <contour>
      <point x="0" y="-200" type="line"/>
      <point x="301" y="-200" type="line"/>
      <point x="301" y="-143" type="line"/>
      <point x="0" y="-143" type="line"/>
    </contour>
  </outline>
</glyph>
<glyph name="uniFE2E" format="2">
  <unicode hex="FE2E"/>
  <anchor x="-69" y="536" name="_top"/>
  <outline>
    <contour>
      <point x="-69" y="570" type="curve" smooth="yes"/>
      <point x="-47" y="570"/>
      <point x="-34" y="585"/>
      <point x="-30" y="616" type="curve"/>
      <point x="106" y="616" type="line"/>
      <point x="106" y="668" type="line"/>
      <point x="-68" y="668" type="line" smooth="yes"/>
      <point x="-97" y="668"/>
      <point x="-106" y="661"/>
      <point x="-106" y="622" type="curve" smooth="yes"/>
      <point x="-106" y="587"/>
      <point x="-95" y="570"/>
    </contour>
  </outline>
</glyph>
<glyph name="uniFE2F" format="2">
  <unicode hex="FE2F"/>
  <anchor x="68" y="536" name="_top"/>
  <outline>
    <contour>
      <point x="-107" y="616" type="line"/>
      <point x="67" y="616" type="line" smooth="yes"/>
      <point x="97" y="616"/>
      <point x="107" y="626"/>
      <point x="107" y="663" type="curve" smooth="yes"/>
      <point x="107" y="697"/>
      <point x="93" y="713"/>
      <point x="68" y="713" type="curve" smooth="yes"/>
      <point x="45" y="713"/>
      <point x="32" y="700"/>
      <point x="29" y="668" type="curve"/>
      <point x="-107" y="668" type="line"/>
    </contour>
  </outline>
</glyph>
